<?xml version="1.0" encoding="UTF-8" standalone="no"?>
<!-- Created with Inkscape (http://www.inkscape.org/) -->

<svg
   width="1024"
   height="1024"
   viewBox="0 0 270.93333 270.93333"
   version="1.1"
   id="svg5"
   sodipodi:docname="novauth_logo.svg"
   inkscape:version="1.1.2 (0a00cf5339, 2022-02-04)"
   inkscape:export-filename="/home/matteo/Documents/novauth_graphics/novauth_logo.png"
   inkscape:export-xdpi="96"
   inkscape:export-ydpi="96"
   xmlns:inkscape="http://www.inkscape.org/namespaces/inkscape"
   xmlns:sodipodi="http://sodipodi.sourceforge.net/DTD/sodipodi-0.dtd"
   xmlns="http://www.w3.org/2000/svg"
   xmlns:svg="http://www.w3.org/2000/svg">
  <sodipodi:namedview
     id="namedview7"
     pagecolor="#505050"
     bordercolor="#eeeeee"
     borderopacity="1"
     inkscape:pageshadow="0"
     inkscape:pageopacity="0"
     inkscape:pagecheckerboard="0"
     inkscape:document-units="mm"
     showgrid="false"
     units="px"
     inkscape:zoom="0.45905832"
     inkscape:cx="437.85286"
     inkscape:cy="479.24194"
     inkscape:window-width="1920"
     inkscape:window-height="1011"
     inkscape:window-x="900"
     inkscape:window-y="284"
     inkscape:window-maximized="1"
     inkscape:current-layer="layer2" />
  <defs
     id="defs2">
    <inkscape:path-effect
       effect="mirror_symmetry"
       start_point="133.76762,45.409836"
       end_point="133.76762,250.90418"
       center_point="133.76762,148.15701"
       id="path-effect4931"
       is_visible="true"
       lpeversion="1.1"
       mode="free"
       discard_orig_path="false"
       fuse_paths="false"
       oposite_fuse="false"
       split_items="false"
       split_open="false" />
  </defs>
  <g
     inkscape:groupmode="layer"
     id="layer2"
     inkscape:label="Background">
    <rect
       style="fill:#450e72;fill-opacity:1;stroke:none;stroke-width:8.01104;stroke-linecap:round;stroke-linejoin:round;stroke-miterlimit:4;stroke-dasharray:none;stroke-opacity:1"
       id="rect5663"
       width="270.93332"
       height="270.93332"
       x="-4.4408921e-16"
       y="0"
       ry="22.284"
       inkscape:export-filename="/home/matteo/Documents/novauth_graphics/novauth_logo_flat.png"
       inkscape:export-xdpi="96"
       inkscape:export-ydpi="96" />
  </g>
  <g
     inkscape:label="Foreground"
     inkscape:groupmode="layer"
     id="layer1">
    <path
       style="fill:none;stroke:#ffffff;stroke-width:15;stroke-linecap:round;stroke-linejoin:round;stroke-miterlimit:4;stroke-dasharray:none;stroke-opacity:1"
       d="M 133.76762,45.409836 51.569889,76.233987 c 0,0 -0.909479,77.869813 0.276788,86.172083 6.510023,45.56138 81.920943,88.49811 81.920943,88.49811 m 0,-205.494344 82.19773,30.824151 c 0,0 0.90948,77.869813 -0.27679,86.172083 -6.51002,45.56138 -81.92094,88.49811 -81.92094,88.49811"
       id="path273"
       sodipodi:nodetypes="ccsc"
       inkscape:original-d="M 133.76762,45.409836 51.569889,76.233987 c 0,0 -0.909479,77.869813 0.276788,86.172083 6.510023,45.56138 81.920943,88.49811 81.920943,88.49811"
       inkscape:path-effect="#path-effect4931"
       transform="matrix(1.004449,0,0,1.0449194,1.1039145,-19.345465)" />
    <g
       id="g13972"
       transform="matrix(1.4447832,0,0,1.4447832,-62.436258,-69.000108)">
      <path
         sodipodi:type="star"
         style="fill:#ffffff;fill-opacity:1;stroke:none;stroke-width:56.6896;stroke-linecap:round;stroke-linejoin:round;stroke-miterlimit:4;stroke-dasharray:none;stroke-opacity:1"
         id="path7760"
         inkscape:flatsided="false"
         sodipodi:sides="5"
         sodipodi:cx="571.28699"
         sodipodi:cy="341.51981"
         sodipodi:r1="232.54871"
         sodipodi:r2="116.27435"
         sodipodi:arg1="1.9674233"
         sodipodi:arg2="2.5957418"
         inkscape:rounded="0.12705315"
         inkscape:randomized="0"
         d="m 481.45124,556.01559 c -18.09735,-7.57959 0.6436,-137.36311 -9.5423,-154.13248 -10.1859,-16.76937 -133.99656,-59.9655 -132.38033,-79.51933 1.61622,-19.55383 130.83895,-41.83544 143.63996,-56.70483 12.801,-14.86938 15.62337,-145.96866 34.7196,-150.474 19.09624,-4.50535 80.21933,111.50738 98.31669,119.08696 18.09735,7.57959 143.65233,-30.24808 153.83823,-13.47871 10.1859,16.76937 -81.26069,110.75079 -82.87691,130.30462 -1.61623,19.55383 73.15865,127.27431 60.35765,142.1437 -12.80101,14.86938 -130.4412,-43.05963 -149.53743,-38.55429 -19.09624,4.50535 -98.4378,108.90794 -116.53516,101.32836 z"
         transform="matrix(0.04311945,0.09246991,-0.09246991,0.04311945,151.10714,76.039489)"
         inkscape:transform-center-x="1.9870952"
         inkscape:transform-center-y="0.29104658" />
      <path
         style="fill:#ffffff;fill-opacity:1;stroke:none;stroke-width:0.264583px;stroke-linecap:butt;stroke-linejoin:miter;stroke-opacity:1"
         d="m 135.64277,156.52358 c -12.62762,2.69803 -32.87688,2.11157 -36.373056,-7.43575 -5.703158,-15.57413 7.980226,-30.90638 27.209436,-40.57461 19.28451,-9.696017 46.48803,-11.80261 49.27097,-1.28212 2.02718,7.66339 -9.36866,18.47591 -9.36866,18.47591 0,0 9.49761,-13.75245 6.27402,-17.4735 -8.2451,-9.517459 -31.82554,0.15825 -41.56101,5.45822 -9.73547,5.29997 -29.03925,19.62049 -23.29595,31.73423 3.6911,7.78526 21.50741,-1.00386 21.50741,-1.00386 l 10.72545,2.79511 z"
         id="path8227"
         sodipodi:nodetypes="cssscszsccc" />
    </g>
  </g>
</svg>
